<svg width="74" height="75" viewBox="0 0 74 75" fill="none" xmlns="http://www.w3.org/2000/svg">
<path fill-rule="evenodd" clip-rule="evenodd" d="M12.3333 21.3V25H8.63325C7.1613 25 5.74964 25.5847 4.70881 26.6256C3.66798 27.6664 3.08325 29.078 3.08325 30.55V56.45C3.08325 57.922 3.66798 59.3336 4.70881 60.3744C5.74964 61.4153 7.1613 62 8.63325 62H59.1999C59.9288 62 60.6505 61.8564 61.3238 61.5775C61.9972 61.2986 62.609 60.8898 63.1244 60.3744C63.6397 59.8591 64.0485 59.2472 64.3274 58.5739C64.6064 57.9005 64.7499 57.1788 64.7499 56.45V52.75H68.4499C71.5086 52.75 73.9999 50.2587 73.9999 47.2V21.3C73.9999 18.2413 71.5086 15.75 68.4499 15.75H17.8833C14.8246 15.75 12.3333 18.2413 12.3333 21.3ZM18.4999 21.9167V25H59.1999C59.9288 25 60.6505 25.1436 61.3238 25.4225C61.9972 25.7014 62.609 26.1102 63.1244 26.6256C63.6397 27.1409 64.0485 27.7527 64.3274 28.4261C64.6064 29.0995 64.7499 29.8212 64.7499 30.55V46.5833H67.8333V21.9167H18.4999ZM27.7499 43.5C27.7499 41.8645 28.3996 40.296 29.5561 39.1395C30.7126 37.983 32.2811 37.3333 33.9166 37.3333C35.5521 37.3333 37.1206 37.983 38.2771 39.1395C39.4335 40.296 40.0833 41.8645 40.0833 43.5C40.0833 45.1355 39.4335 46.704 38.2771 47.8605C37.1206 49.017 35.5521 49.6667 33.9166 49.6667C32.2811 49.6667 30.7126 49.017 29.5561 47.8605C28.3996 46.704 27.7499 45.1355 27.7499 43.5Z" fill="white"/>
</svg>
