<svg width="24" height="25" viewBox="0 0 24 25" fill="none" xmlns="http://www.w3.org/2000/svg">
<path d="M7.7501 2.77344C7.7501 2.57453 7.67108 2.38376 7.53043 2.24311C7.38978 2.10246 7.19901 2.02344 7.0001 2.02344C6.80119 2.02344 6.61042 2.10246 6.46977 2.24311C6.32912 2.38376 6.2501 2.57453 6.2501 2.77344V4.35344C4.8101 4.46844 3.8661 4.75044 3.1721 5.44544C2.4771 6.13944 2.1951 7.08444 2.0791 8.52344H21.9211C21.8051 7.08344 21.5231 6.13944 20.8281 5.44544C20.1341 4.75044 19.1891 4.46844 17.7501 4.35244V2.77344C17.7501 2.57453 17.6711 2.38376 17.5304 2.24311C17.3898 2.10246 17.199 2.02344 17.0001 2.02344C16.8012 2.02344 16.6104 2.10246 16.4698 2.24311C16.3291 2.38376 16.2501 2.57453 16.2501 2.77344V4.28644C15.5851 4.27344 14.8391 4.27344 14.0001 4.27344H10.0001C9.1611 4.27344 8.4151 4.27344 7.7501 4.28644V2.77344Z" fill="white"/>
<path fill-rule="evenodd" clip-rule="evenodd" d="M2 12.2734C2 11.4344 2 10.6884 2.013 10.0234H21.987C22 10.6884 22 11.4344 22 12.2734V14.2734C22 18.0444 22 19.9304 20.828 21.1014C19.656 22.2724 17.771 22.2734 14 22.2734H10C6.229 22.2734 4.343 22.2734 3.172 21.1014C2.001 19.9294 2 18.0444 2 14.2734V12.2734ZM17 14.2734C17.2652 14.2734 17.5196 14.1681 17.7071 13.9805C17.8946 13.793 18 13.5387 18 13.2734C18 13.0082 17.8946 12.7539 17.7071 12.5663C17.5196 12.3788 17.2652 12.2734 17 12.2734C16.7348 12.2734 16.4804 12.3788 16.2929 12.5663C16.1054 12.7539 16 13.0082 16 13.2734C16 13.5387 16.1054 13.793 16.2929 13.9805C16.4804 14.1681 16.7348 14.2734 17 14.2734ZM17 18.2734C17.2652 18.2734 17.5196 18.1681 17.7071 17.9805C17.8946 17.793 18 17.5387 18 17.2734C18 17.0082 17.8946 16.7539 17.7071 16.5663C17.5196 16.3788 17.2652 16.2734 17 16.2734C16.7348 16.2734 16.4804 16.3788 16.2929 16.5663C16.1054 16.7539 16 17.0082 16 17.2734C16 17.5387 16.1054 17.793 16.2929 17.9805C16.4804 18.1681 16.7348 18.2734 17 18.2734ZM13 13.2734C13 13.5387 12.8946 13.793 12.7071 13.9805C12.5196 14.1681 12.2652 14.2734 12 14.2734C11.7348 14.2734 11.4804 14.1681 11.2929 13.9805C11.1054 13.793 11 13.5387 11 13.2734C11 13.0082 11.1054 12.7539 11.2929 12.5663C11.4804 12.3788 11.7348 12.2734 12 12.2734C12.2652 12.2734 12.5196 12.3788 12.7071 12.5663C12.8946 12.7539 13 13.0082 13 13.2734ZM13 17.2734C13 17.5387 12.8946 17.793 12.7071 17.9805C12.5196 18.1681 12.2652 18.2734 12 18.2734C11.7348 18.2734 11.4804 18.1681 11.2929 17.9805C11.1054 17.793 11 17.5387 11 17.2734C11 17.0082 11.1054 16.7539 11.2929 16.5663C11.4804 16.3788 11.7348 16.2734 12 16.2734C12.2652 16.2734 12.5196 16.3788 12.7071 16.5663C12.8946 16.7539 13 17.0082 13 17.2734ZM7 14.2734C7.26522 14.2734 7.51957 14.1681 7.70711 13.9805C7.89464 13.793 8 13.5387 8 13.2734C8 13.0082 7.89464 12.7539 7.70711 12.5663C7.51957 12.3788 7.26522 12.2734 7 12.2734C6.73478 12.2734 6.48043 12.3788 6.29289 12.5663C6.10536 12.7539 6 13.0082 6 13.2734C6 13.5387 6.10536 13.793 6.29289 13.9805C6.48043 14.1681 6.73478 14.2734 7 14.2734ZM7 18.2734C7.26522 18.2734 7.51957 18.1681 7.70711 17.9805C7.89464 17.793 8 17.5387 8 17.2734C8 17.0082 7.89464 16.7539 7.70711 16.5663C7.51957 16.3788 7.26522 16.2734 7 16.2734C6.73478 16.2734 6.48043 16.3788 6.29289 16.5663C6.10536 16.7539 6 17.0082 6 17.2734C6 17.5387 6.10536 17.793 6.29289 17.9805C6.48043 18.1681 6.73478 18.2734 7 18.2734Z" fill="white"/>
</svg>
