<svg width="18" height="19" viewBox="0 0 18 19" fill="none" xmlns="http://www.w3.org/2000/svg">
<g clip-path="url(#clip0_330_595)">
<path fill-rule="evenodd" clip-rule="evenodd" d="M0 9.45791C0 7.11631 0.913283 4.87062 2.53894 3.21486C4.16459 1.5591 6.36945 0.628906 8.66848 0.628906C10.9675 0.628906 13.1724 1.5591 14.798 3.21486C16.4237 4.87062 17.337 7.11631 17.337 9.45791C17.337 11.7995 16.4237 14.0452 14.798 15.701C13.1724 17.3567 10.9675 18.2869 8.66848 18.2869C6.36945 18.2869 4.16459 17.3567 2.53894 15.701C0.913283 14.0452 0 11.7995 0 9.45791H0ZM8.1738 13.2367L13.1645 6.8822L12.263 6.14762L8.00736 11.5639L4.99304 9.00587L4.25333 9.90996L8.1738 13.2379V13.2367Z" fill="white"/>
</g>
<defs>
<clipPath id="clip0_330_595">
<rect width="17.337" height="17.658" fill="white" transform="translate(0 0.628906)"/>
</clipPath>
</defs>
</svg>
