<svg width="24" height="25" viewBox="0 0 24 25" fill="none" xmlns="http://www.w3.org/2000/svg">
<path d="M6.62 10.8369C8.06 13.6669 10.38 15.9769 13.21 17.4269L15.41 15.2269C15.68 14.9569 16.08 14.8669 16.43 14.9869C17.55 15.3569 18.76 15.5569 20 15.5569C20.55 15.5569 21 16.0069 21 16.5569V20.0469C21 20.5969 20.55 21.0469 20 21.0469C10.61 21.0469 3 13.4369 3 4.04688C3 3.49687 3.45 3.04688 4 3.04688H7.5C8.05 3.04688 8.5 3.49687 8.5 4.04688C8.5 5.29688 8.7 6.49688 9.07 7.61688C9.18 7.96688 9.1 8.35687 8.82 8.63688L6.62 10.8369Z" fill="white"/>
</svg>
