<svg width="33" height="33" viewBox="0 0 33 33" fill="none" xmlns="http://www.w3.org/2000/svg">
<path fill-rule="evenodd" clip-rule="evenodd" d="M14.547 11.2282C15.2412 10.2926 15.4902 9.30663 14.705 8.43628C12.943 5.97079 11.7581 4.44613 11.0148 3.71189C9.60171 2.31601 7.27719 2.50483 6.05337 3.7107C5.39605 4.35839 5.17352 4.5808 4.49859 5.26634C0.739132 9.02781 3.03184 16.9794 9.1267 23.0803C15.2202 29.1798 23.171 31.4737 26.9384 27.7043C27.5612 27.1039 28.0885 26.5763 28.5044 26.1367C29.7037 24.8691 29.8858 22.6471 28.4965 21.2036C27.7842 20.4635 26.3303 19.3357 23.7611 17.4979C22.9742 16.7943 22.0412 16.9468 21.1859 17.508C20.7744 17.7779 20.475 18.051 19.9096 18.617L18.8828 19.6443C18.7476 19.7796 16.9113 18.86 15.1288 17.0757C13.3453 15.2905 12.4264 13.4541 12.561 13.3195C12.8385 13.042 13.181 12.6993 13.5884 12.2915C13.7678 12.1119 13.8535 12.025 13.9635 11.9094C14.1927 11.6686 14.3824 11.45 14.547 11.2282ZM20.7768 21.5392L21.8037 20.5117C22.1149 20.2002 22.3165 20.0087 22.4806 19.8767C24.7313 21.4929 26.0347 22.5092 26.5672 23.0624C26.8868 23.3946 26.8371 24.0006 26.5593 24.2943C26.1747 24.7008 25.6751 25.2007 25.062 25.792C22.6259 28.2292 16.2077 26.3775 11.0211 21.1857C5.83275 15.9923 3.98192 9.57319 6.39962 7.15415C7.07183 6.47143 7.28481 6.25856 7.93275 5.62013C8.17569 5.38075 8.83744 5.32699 9.13298 5.61893C9.70523 6.18423 10.7667 7.54342 12.3283 9.71862C12.2474 9.81899 12.1465 9.9324 12.0236 10.0615C11.9334 10.1563 11.8583 10.2325 11.694 10.3969C11.287 10.8044 10.9448 11.1467 10.6676 11.4239C8.92145 13.1699 10.4085 16.1416 13.2345 18.9702C16.0584 21.797 19.0312 23.2858 20.7768 21.5392Z" fill="white"/>
</svg>
