<svg width="33" height="33" viewBox="0 0 33 33" fill="none" xmlns="http://www.w3.org/2000/svg">
<path fill-rule="evenodd" clip-rule="evenodd" d="M16.0792 31.3125L16.9605 30.543C24.3717 24.0716 28.1388 18.4211 28.1388 13.4542C28.1388 6.42026 22.6489 1.39453 16.0792 1.39453C9.50941 1.39453 4.01953 6.42026 4.01953 13.4542C4.01953 18.4211 7.78657 24.0716 15.1978 30.543L16.0792 31.3125ZM16.0791 27.7428C9.79019 22.075 6.69943 17.2721 6.69943 13.4543C6.69943 7.95589 10.9392 4.07456 16.0791 4.07456C21.2191 4.07456 25.4588 7.95589 25.4588 13.4543C25.4588 17.2721 22.3681 22.075 16.0791 27.7428ZM16.0791 6.75448C19.7793 6.75448 22.7789 9.75408 22.7789 13.4543C22.7789 17.1545 19.7793 20.1541 16.0791 20.1541C12.3789 20.1541 9.37934 17.1545 9.37934 13.4543C9.37934 9.75408 12.3789 6.75448 16.0791 6.75448ZM12.0593 13.4543C12.0593 11.2342 13.859 9.4344 16.0791 9.4344C18.2992 9.4344 20.099 11.2342 20.099 13.4543C20.099 15.6744 18.2992 17.4741 16.0791 17.4741C13.859 17.4741 12.0593 15.6744 12.0593 13.4543Z" fill="white"/>
</svg>
