<svg width="11" height="8" viewBox="0 0 11 8" fill="none" xmlns="http://www.w3.org/2000/svg">
<path d="M10.6674 2.05915L5.69866 7.02121C5.61384 7.10603 5.51339 7.14844 5.39732 7.14844C5.28125 7.14844 5.1808 7.10603 5.09598 7.02121L0.127232 2.05915C0.0424107 1.97433 0 1.87277 0 1.75446C0 1.63616 0.0424107 1.5346 0.127232 1.44978L1.23884 0.344866C1.32366 0.260045 1.42411 0.217634 1.54018 0.217634C1.65625 0.217634 1.7567 0.260045 1.84152 0.344866L5.39732 3.90067L8.95313 0.344866C9.03795 0.260045 9.13839 0.217634 9.25447 0.217634C9.37054 0.217634 9.47098 0.260045 9.5558 0.344866L10.6674 1.44978C10.7522 1.5346 10.7946 1.63616 10.7946 1.75446C10.7946 1.87277 10.7522 1.97433 10.6674 2.05915Z" fill="white"/>
</svg>
